<svg xmlns="http://www.w3.org/2000/svg" width="40" height="40" viewBox="0 0 40 40"><path fill="#C03067" fill-rule="evenodd" d="M19.947 0C31.062 0 40 8.957 40 20c0 11.047-8.958 20-20.002 20C8.953 40 0 31.043 0 20S8.828 0 19.947 0zm-1.435 23.657c.086 1.198.77 1.84 2.052 1.926 1.197-.171 1.88-.855 2.051-2.054l.257-12.45v-.512c-.085-1.54-.856-2.396-2.308-2.567-1.454.17-2.223 1.026-2.308 2.567v.513l.256 12.577zM20.436 27c-1.539.085-2.35.94-2.436 2.564.085 1.539.897 2.35 2.436 2.436 1.624-.085 2.479-.897 2.564-2.436-.085-1.624-.94-2.479-2.564-2.564z"/></svg>